<svg xmlns="http://www.w3.org/2000/svg" viewBox="0 0 120 120">
  <ellipse cx="60" cy="70" rx="30" ry="35" fill="#7888A0"/>
  <ellipse cx="60" cy="75" rx="18" ry="22" fill="#B0C0D0"/>
  <circle cx="60" cy="38" r="22" fill="#7888A0"/>
  <circle cx="42" cy="20" r="8" fill="#7888A0"/>
  <circle cx="42" cy="20" r="5" fill="#90A0B8"/>
  <circle cx="78" cy="20" r="8" fill="#7888A0"/>
  <circle cx="78" cy="20" r="5" fill="#90A0B8"/>
  <ellipse cx="48" cy="38" rx="12" ry="8" fill="#4A5A70"/>
  <ellipse cx="72" cy="38" rx="12" ry="8" fill="#4A5A70"/>
  <circle cx="50" cy="37" r="4" fill="white"/>
  <circle cx="70" cy="37" r="4" fill="white"/>
  <circle cx="51" cy="37" r="2.5" fill="#1a1a1a"/>
  <circle cx="71" cy="37" r="2.5" fill="#1a1a1a"/>
  <ellipse cx="60" cy="44" rx="3" ry="2" fill="#333"/>
  <path d="M30 75 Q10 55 15 35 Q18 30 22 35 Q27 55 35 70" fill="#7888A0"/>
  <path d="M18 42 Q20 38 22 42" fill="#4A5A70" stroke="#4A5A70" stroke-width="3"/>
  <path d="M16 50 Q18 46 20 50" fill="#4A5A70" stroke="#4A5A70" stroke-width="3"/>
</svg>
