<svg xmlns="http://www.w3.org/2000/svg" viewBox="0 0 100 100">
  <!-- Stand base -->
  <ellipse cx="50" cy="88" rx="22" ry="6" fill="#4A3728" stroke="#2C1810" stroke-width="2.5"/>
  <!-- Stand neck -->
  <path d="M38,82 Q40,78 42,75 L58,75 Q60,78 62,82" fill="#4A3728" stroke="#2C1810" stroke-width="2.5"/>
  <!-- Stand cradle -->
  <path d="M35,75 Q50,82 65,75" fill="none" stroke="#4A3728" stroke-width="4"/>
  <path d="M35,75 Q50,82 65,75" fill="none" stroke="#2C1810" stroke-width="2"/>
  <!-- Crystal ball -->
  <circle cx="50" cy="48" r="28" fill="#E0E0FF" stroke="#2C1810" stroke-width="2.5"/>
  <!-- Inner glow -->
  <circle cx="50" cy="48" r="20" fill="#D0D0FF" opacity="0.5"/>
  <circle cx="50" cy="48" r="12" fill="#C8C8FF" opacity="0.4"/>
  <!-- Highlight -->
  <circle cx="40" cy="38" r="7" fill="#FFFFFF" opacity="0.5"/>
  <circle cx="38" cy="36" r="3" fill="#FFFFFF" opacity="0.8"/>
  <!-- Mystic glow dots -->
  <circle cx="45" cy="50" r="2" fill="#9B59B6" opacity="0.6"/>
  <circle cx="55" cy="44" r="1.5" fill="#9B59B6" opacity="0.7"/>
  <circle cx="50" cy="56" r="1.5" fill="#9B59B6" opacity="0.5"/>
  <circle cx="42" cy="42" r="1" fill="#9B59B6" opacity="0.8"/>
  <circle cx="58" cy="52" r="1" fill="#9B59B6" opacity="0.6"/>
  <circle cx="48" cy="38" r="1.5" fill="#9B59B6" opacity="0.4"/>
</svg>